<svg width="19" height="20" viewBox="0 0 19 20" fill="none" xmlns="http://www.w3.org/2000/svg">
<path d="M16.3248 7.46875C16.3248 7.46875 15.7818 14.2037 15.4668 17.0407C15.3168 18.3957 14.4798 19.1898 13.1088 19.2148C10.4998 19.2618 7.88779 19.2648 5.27979 19.2098C3.96079 19.1828 3.13779 18.3788 2.99079 17.0478C2.67379 14.1858 2.13379 7.46875 2.13379 7.46875" stroke="#1A162E" stroke-width="1.5" stroke-linecap="round" stroke-linejoin="round"/>
<path d="M17.708 4.24023H0.75" stroke="#1A162E" stroke-width="1.5" stroke-linecap="round" stroke-linejoin="round"/>
<path d="M14.4404 4.23998C13.6554 4.23998 12.9794 3.68498 12.8254 2.91598L12.5824 1.69998C12.4324 1.13898 11.9244 0.750977 11.3454 0.750977H7.1124C6.5334 0.750977 6.0254 1.13898 5.8754 1.69998L5.6324 2.91598C5.4784 3.68498 4.8024 4.23998 4.0174 4.23998" stroke="#1A162E" stroke-width="1.5" stroke-linecap="round" stroke-linejoin="round"/>
</svg>
